<svg width="82" height="32" viewBox="0 0 82 32" fill="none" xmlns="http://www.w3.org/2000/svg">
<mask id="mask0_252_9141" style="mask-type:luminance" maskUnits="userSpaceOnUse" x="0" y="0" width="82" height="32">
<path d="M82 0H0V32H82V0Z" fill="white"/>
</mask>
<g mask="url(#mask0_252_9141)">
<path d="M34.8382 12.9668H27.853L36.7708 1.32398C36.8628 1.19971 36.9016 1.04478 36.8788 0.892565C36.8561 0.740354 36.7736 0.603042 36.6492 0.510206C36.5482 0.433915 36.4245 0.39266 36.2973 0.392859H23.3928C23.107 0.368383 22.8191 0.402766 22.5475 0.493825C22.2759 0.584884 22.0264 0.730631 21.815 0.921813C21.6035 1.113 21.4347 1.34544 21.3192 1.60439C21.2037 1.86334 21.144 2.14313 21.144 2.42602C21.144 2.70891 21.2037 2.98871 21.3192 3.24766C21.4347 3.5066 21.6035 3.73905 21.815 3.93023C22.0264 4.12141 22.2759 4.26716 22.5475 4.35822C22.8191 4.44928 23.107 4.48366 23.3928 4.45919H29.1983L20.2417 16.0995C20.1738 16.1862 20.1319 16.29 20.121 16.3991C20.11 16.5081 20.1304 16.618 20.1798 16.7162C20.2291 16.8144 20.3055 16.8969 20.4002 16.9543C20.4949 17.0117 20.604 17.0417 20.7151 17.0408H34.8382C35.3514 16.9933 35.8281 16.7587 36.1752 16.3829C36.5222 16.0071 36.7145 15.5172 36.7145 15.0089C36.7145 14.5007 36.5222 14.0107 36.1752 13.6349C35.8281 13.2591 35.3514 13.0245 34.8382 12.977V12.9668ZM79.9368 0.385206C79.3879 0.385206 78.8614 0.60022 78.4733 0.982947C78.0852 1.36567 77.8671 1.88476 77.8671 2.42602V9.2398L66.7244 0.510206C66.6374 0.440852 66.5323 0.397192 66.4212 0.384275C66.3102 0.371357 66.1976 0.38971 66.0967 0.43721C65.9958 0.484711 65.9105 0.559419 65.8508 0.652693C65.7911 0.745967 65.7594 0.853996 65.7594 0.964287V14.9949C65.8005 15.5066 66.0357 15.9843 66.4181 16.3327C66.8005 16.681 67.302 16.8745 67.8226 16.8745C68.3433 16.8745 68.8447 16.681 69.2271 16.3327C69.6095 15.9843 69.8447 15.5066 69.8859 14.9949V8.16327L81.0337 16.8929C81.1215 16.9616 81.2272 17.0044 81.3386 17.0165C81.45 17.0286 81.5626 17.0094 81.6635 16.9612C81.7643 16.9129 81.8493 16.8376 81.9086 16.7438C81.9679 16.65 81.9992 16.5416 81.9987 16.4311V2.40051C81.9987 1.85925 81.7807 1.34016 81.3925 0.957437C81.0044 0.574709 80.478 0.359695 79.929 0.359695M50.4359 13.3265C45.7196 13.3265 42.1908 10.875 42.1908 8.68112C42.1908 6.48725 45.7196 4.03572 50.4359 4.03572C55.1522 4.03572 58.6914 6.51276 58.6914 8.70663C58.6914 10.9005 55.1729 13.352 50.4463 13.352M50.4463 1.49403e-06C43.6163 1.49403e-06 38.0799 3.89796 38.0799 8.70663C38.0799 13.5153 43.6163 17.4133 50.4463 17.4133C57.2763 17.4133 62.8049 13.5204 62.8049 8.70663C62.8049 3.89286 57.2685 1.49403e-06 50.4411 1.49403e-06M9.83888 13.3571C8.90606 13.3582 7.99391 13.0864 7.21775 12.5762C6.44159 12.0661 5.83628 11.3404 5.47837 10.491C5.12046 9.64164 5.02602 8.70668 5.20699 7.80437C5.38797 6.90206 5.83623 6.07294 6.4951 5.42184C7.15396 4.77074 7.99383 4.32691 8.90851 4.14648C9.82318 3.96605 10.7716 4.05712 11.6338 4.40817C12.496 4.75923 13.2332 5.3545 13.7523 6.11871C14.2714 6.88292 14.549 7.78175 14.55 8.70153C14.5507 9.31225 14.4294 9.91711 14.193 10.4816C13.9566 11.0461 13.6098 11.5591 13.1723 11.9914C12.7349 12.4237 12.2153 12.7669 11.6434 13.0012C11.0714 13.2355 10.4583 13.3565 9.83888 13.3571ZM9.83888 1.49403e-06C8.09084 -0.00100758 6.38178 0.509154 4.92782 1.46597C3.47386 2.42278 2.34032 3.78326 1.67056 5.37535C1.00079 6.96744 0.824887 8.71962 1.16509 10.4103C1.5053 12.101 2.34633 13.6542 3.58183 14.8735C4.81732 16.0928 6.39178 16.9235 8.10607 17.2604C9.82038 17.5974 11.5975 17.4255 13.2127 16.7665C14.828 16.1074 16.2087 14.9909 17.1803 13.5581C18.1519 12.1252 18.6708 10.4405 18.6713 8.71684C18.6727 7.57239 18.4452 6.43891 18.0019 5.38123C17.5586 4.32355 16.9082 3.36242 16.0879 2.55282C15.2675 1.74322 14.2934 1.10103 13.2211 0.662997C12.1489 0.224959 10.9995 -0.000334611 9.83888 1.49403e-06Z" fill="white"/>
<path d="M1.14453 30.1305L1.71628 29.1101C2.48232 29.6181 3.38044 29.8979 4.3034 29.9162C5.33825 29.9162 5.8091 29.5132 5.8091 28.9315C5.8091 28.4494 5.46501 28.128 4.77425 27.8218L3.36686 27.1611C2.27251 26.6509 1.73439 25.9826 1.73439 25.082C1.73439 23.7759 2.76924 23.082 4.32151 23.082C5.20326 23.0947 6.07209 23.2931 6.86982 23.6637L6.36533 24.6841C5.72211 24.3654 5.01528 24.1912 4.29564 24.1739C3.44706 24.1739 2.98914 24.4647 2.98914 25.0285C2.98914 25.5387 3.33323 25.8167 4.06797 26.156L5.45984 26.7861C6.42225 27.2377 7.07679 27.8065 7.07679 28.8831C7.07679 30.2989 5.96433 31.0081 4.26459 31.0081C3.16221 31.0062 2.08203 30.7024 1.14453 30.1305Z" fill="white"/>
<path d="M15.6084 26.9869V27.1987H9.33201C9.36565 28.8415 10.46 29.8721 12.0459 29.8721C13.4508 29.8721 14.17 29.0507 14.6331 28.4538L15.4816 29.2191C15.1163 29.7813 14.6101 30.2411 14.0118 30.5539C13.4136 30.8667 12.7436 31.022 12.0666 31.0048C9.68127 31.0048 8.14453 29.4104 8.14453 27.0584C8.14453 24.7063 9.68127 23.0762 11.9864 23.0762C14.4546 23.0711 15.6084 24.7803 15.6084 26.9869ZM9.38117 26.3109H14.333C14.2191 24.9589 13.368 24.1528 11.914 24.1528C10.6075 24.1528 9.56227 24.8926 9.38117 26.3109Z" fill="white"/>
<path d="M18.4741 30.7595H17.2969V20.1855H18.4741V30.7595Z" fill="white"/>
<path d="M21.7827 30.7595H20.6055V20.1855H21.7827V30.7595Z" fill="white"/>
<path d="M30.9404 26.9869V27.1987H24.6641C24.6977 28.8415 25.7921 29.8721 27.378 29.8721C28.7828 29.8721 29.502 29.0507 29.9651 28.4538L30.8137 29.2191C30.4482 29.7811 29.9419 30.2408 29.3437 30.5536C28.7455 30.8664 28.0756 31.0218 27.3987 31.0048C25.0134 31.0048 23.4766 29.4104 23.4766 27.0584C23.4766 24.7063 25.0134 23.0762 27.3159 23.0762C29.7788 23.0711 30.9404 24.7803 30.9404 26.9869ZM24.7133 26.3109H29.665C29.5512 24.9589 28.7 24.1528 27.246 24.1528C25.9395 24.1528 24.8918 24.8926 24.7133 26.3109Z" fill="white"/>
<path d="M36.5002 24.4266H36.2699C34.6685 24.4266 33.7708 25.4267 33.7708 27.2635V30.7608H32.5938V23.3144H33.7708V25.0007H33.8018C33.9367 24.4502 34.2583 23.9617 34.7133 23.6161C35.1683 23.2704 35.7294 23.0883 36.3036 23.1001H36.5002V24.4266Z" fill="white"/>
</g>
</svg>
