<svg width="43" height="47" viewBox="0 0 43 47" fill="none" xmlns="http://www.w3.org/2000/svg">
<mask id="mask0_252_9133" style="mask-type:luminance" maskUnits="userSpaceOnUse" x="0" y="0" width="43" height="47">
<path d="M43 0H0V47H43V0Z" fill="white"/>
</mask>
<g mask="url(#mask0_252_9133)">
<path d="M26.191 22.8873C26.191 22.8873 25.9117 22.6088 25.465 22.6088C25.2416 22.6088 24.9624 22.6645 24.7391 22.8316C24.6832 22.8316 24.6832 22.8873 24.6832 22.943C24.6832 22.943 24.8507 24.168 24.7391 24.7249C24.6273 25.1147 24.2923 25.5603 23.678 25.5603C23.5663 25.5603 23.3988 25.5603 23.2871 25.5046L23.7338 25.1704C23.7896 25.1704 23.7896 25.1147 23.7896 25.0591C23.7896 25.0034 23.7896 25.0034 23.7338 24.9477L22.8403 24.3352C23.1195 24.1124 23.2871 23.9453 23.343 23.9453C23.343 23.9453 23.3988 23.8897 23.3988 23.834C23.3988 23.7782 23.3988 23.7782 23.343 23.7225L23.1754 23.5555C23.1754 23.5555 23.1195 23.4998 23.0637 23.4998H23.0078C23.0078 23.4998 22.7287 23.6669 22.3935 23.9453L22.0027 23.6669L23.4546 22.8316L23.5663 23.11C23.5663 23.1657 23.6221 23.1657 23.678 23.1657C23.7338 23.1657 23.7896 23.1657 23.7896 23.11L24.4598 21.8292C24.4598 21.7735 24.4598 21.7178 24.4598 21.7178C24.4598 21.6621 24.4039 21.6621 24.3481 21.6621L22.8962 21.8849C22.8403 21.8849 22.7845 21.9406 22.7845 21.9963C22.7845 22.0519 22.7845 22.1076 22.8403 22.1076L23.0637 22.3304L21.4442 23.4441L19.8248 22.3304L20.0481 22.1076C20.104 22.0519 20.104 21.9963 20.104 21.9963C20.104 21.9406 20.0481 21.9406 19.9923 21.8849L18.5962 21.6621C18.5404 21.6621 18.5404 21.6621 18.4845 21.7178C18.4845 21.7735 18.4287 21.8292 18.4845 21.8292L19.1546 23.11C19.1546 23.1657 19.2105 23.1657 19.2663 23.1657C19.3222 23.1657 19.378 23.11 19.378 23.11L19.4897 22.8316L20.9416 23.834L20.5508 24.1124C20.1598 23.834 19.9365 23.6669 19.9365 23.6669H19.8806C19.8248 23.6669 19.8248 23.6669 19.7689 23.7225L19.5455 23.7782C19.5455 23.7782 19.4897 23.834 19.4897 23.8897C19.4897 23.9453 19.4897 23.9453 19.5455 24.001C19.5455 24.001 19.7689 24.168 20.0481 24.3908L19.1546 25.0034C19.0988 25.0034 19.0988 25.0591 19.0988 25.1147C19.0988 25.1704 19.0988 25.1704 19.1546 25.2261L19.6013 25.5603C19.4338 25.6159 19.3222 25.6159 19.2105 25.6159C18.5962 25.6159 18.2611 25.1704 18.1494 24.7806C18.0377 24.2794 18.2052 22.9986 18.2052 22.9986C18.2052 22.943 18.2052 22.8873 18.1494 22.8873C17.8702 22.7202 17.6468 22.6645 17.4234 22.6645C16.9767 22.6645 16.6975 22.943 16.6975 22.943L16.6416 22.9986C16.6416 23.0543 16.4741 24.8364 17.3118 25.7273C17.5909 26.0614 18.0377 26.2285 18.4845 26.2285C18.5962 26.2285 18.652 26.2285 18.7637 26.2285C19.2105 26.1728 19.713 26.0614 20.104 25.8944L20.8858 26.3956L19.2105 27.565C19.1546 27.565 19.1546 27.6207 19.1546 27.6764C19.1546 27.732 19.1546 27.732 19.2105 27.7877L20.8858 28.9572L19.4338 29.9595L19.3222 29.6811C19.3222 29.6254 19.2663 29.6254 19.2105 29.6254C19.1546 29.6254 19.0988 29.6254 19.0988 29.6811L18.4287 30.8505C18.4287 30.9062 18.4287 30.9619 18.4287 30.9619C18.4287 31.0176 18.4845 31.0176 18.5404 31.0176L19.9365 30.7948C19.9923 30.7948 20.0481 30.7392 20.0481 30.6835C20.0481 30.6278 20.0481 30.5721 19.9923 30.5721L19.7689 30.3493L21.3884 29.2356L23.0078 30.3493L22.8403 30.6278C22.7845 30.6835 22.7845 30.7392 22.7845 30.7392C22.7845 30.7948 22.8403 30.7948 22.8962 30.8505L24.2923 31.0733C24.3481 31.0733 24.3481 31.0733 24.4039 31.0176C24.4039 30.9619 24.4598 30.9062 24.4039 30.9062L23.7338 29.6254C23.7338 29.5698 23.678 29.5697 23.6221 29.5697C23.5663 29.5697 23.5105 29.6254 23.5105 29.6254L23.4546 29.9038L22.0027 28.9014L23.678 27.732C23.7338 27.732 23.7338 27.6764 23.7338 27.6207C23.7338 27.565 23.7338 27.565 23.678 27.5093L22.0027 26.3398L22.7845 25.8386C23.2312 26.0058 23.678 26.1171 24.1248 26.1728C24.2364 26.1728 24.2923 26.1728 24.4039 26.1728C24.9066 26.1728 25.2975 26.0058 25.5767 25.6716C26.4143 24.7806 26.2468 22.9986 26.2468 22.943C26.2468 22.943 26.2468 22.8873 26.191 22.8873ZM21.4442 24.168L21.8351 24.3908C21.7234 24.4465 21.6117 24.5579 21.4442 24.6136C21.3326 24.5579 21.2209 24.4465 21.1091 24.3908L21.4442 24.168ZM20.104 25.1147L20.6066 24.7806C20.7183 24.8364 20.8299 24.892 20.9416 25.0034C20.7183 25.1147 20.5508 25.2261 20.3273 25.2818L20.104 25.1147ZM22.7287 27.6207L21.4442 28.5117L20.1598 27.6207L21.4442 26.7297L22.7287 27.6207ZM21.4442 26.0058L20.8299 25.5603C21.0533 25.4489 21.2767 25.3375 21.4442 25.2261C21.6676 25.3375 21.8351 25.4489 22.0585 25.5603L21.4442 26.0058ZM22.5611 25.2261C22.3377 25.1147 22.1702 25.0591 21.9469 24.9477C22.0585 24.892 22.1702 24.8363 22.2819 24.7249L22.7845 25.0591L22.5611 25.2261Z" fill="white"/>
<path d="M42.8876 19.5462C42.3851 19.2121 41.4915 19.1007 40.598 19.2121C41.9941 18.7109 42.9435 17.7085 42.9994 16.7619C42.2734 16.5391 41.4915 16.6505 40.8773 16.8176C41.5474 16.3164 42.6643 15.3697 42.5526 14.0332C41.8825 13.8661 40.7097 14.3116 40.2072 14.5343C41.8266 13.6434 42.3851 11.5272 41.5474 10.3021C41.0448 10.5806 38.7552 12.9194 38.3643 13.1979C39.5371 11.8614 40.0954 10.859 40.4305 9.96798C40.8214 8.96561 40.8214 7.23934 39.5929 6.68247C39.0344 8.01896 36.9682 11.4159 35.8513 12.8638C35.7396 12.7524 35.6279 12.5853 35.4604 12.5853C35.1811 13.4763 34.3993 14.59 33.6734 15.1469C33.6175 15.0912 33.5617 14.8685 33.45 14.6457C32.6682 15.8152 30.6578 17.3744 29.9877 18.3768C29.485 19.1007 29.485 19.7689 30.211 20.4372C30.4903 20.7156 31.0487 21.2168 30.5461 21.9408C29.9318 22.8875 28.6474 22.9989 27.9214 22.442C27.9214 22.2749 27.9214 22.1078 27.9214 21.9965C28.7591 21.6623 28.9266 20.5486 28.3123 19.8804C28.2006 20.1588 27.9773 20.3259 27.6981 20.4372C27.6422 20.1588 27.5863 19.9917 27.5863 19.9917L27.5305 19.9361H27.4746C27.4746 19.9361 27.1955 19.936 26.8045 19.8804C27.2513 19.7133 27.5305 19.3235 27.4746 18.7666C26.7487 19.3792 26.0785 18.7666 25.911 18.6552C25.4642 18.154 25.3526 17.5415 25.5201 16.6505C25.6877 15.8709 26.4695 14.6457 27.0279 14.256C27.0838 14.3116 27.2513 14.4787 27.4746 14.4787C27.6422 14.423 27.8656 14.3116 28.0331 14.256C28.5916 14.0888 29.0942 14.2003 29.4292 14.423C30.0435 14.8128 29.9877 15.2027 29.9877 15.481C30.8812 14.9799 30.602 14.0888 29.3734 13.8104C30.211 13.8104 30.8812 14.5343 31.0487 14.6457C31.4954 14.9799 32.1656 14.9242 32.5565 14.7015C33.2825 14.3673 33.45 13.4763 33.2266 13.3093C33.1707 13.6434 32.8916 13.8661 32.5006 13.9218C31.8864 13.9775 31.2721 13.6991 30.7695 13.532C30.3785 13.3649 29.7084 13.2536 29.2617 13.2536C30.0993 12.8081 31.3838 12.8638 31.8305 13.532C32.1097 13.3093 32.2773 13.0865 32.3331 12.641C32.5565 11.4159 31.6071 10.8033 30.602 10.8033C30.602 10.5248 30.4344 10.3578 30.1552 10.4692C30.1552 10.3578 30.0993 10.2465 30.0435 10.1908H30.0993C31.1604 10.1351 32.1097 9.80095 32.6682 9.24408C33.6175 8.24171 32.1097 7.01659 32.6682 6.01422C33.1707 6.23697 33.5617 6.51541 34.2318 6.62678C34.2877 6.79384 34.3435 7.07228 34.3993 7.23934C34.6227 8.35307 33.5617 8.52018 33.8409 9.68959C33.9526 10.2465 34.3435 10.4135 34.511 11.026C34.511 11.026 34.5669 11.4715 34.176 11.8614C35.0695 11.8614 35.5163 11.1375 35.237 10.4135C35.1253 10.1351 34.7903 9.85663 34.7903 9.52256C35.237 10.1351 35.6838 10.0794 36.3539 9.85663C36.689 9.74527 36.689 10.1908 36.5214 10.5806C37.024 10.3021 37.1357 9.80095 37.1357 9.63391C37.1357 9.13273 36.7448 8.90993 36.3539 9.02137C36.1305 9.02137 35.7396 9.35544 35.6838 8.90993C35.5721 8.18603 36.689 8.24171 36.4656 7.12797C36.3539 6.5711 35.7396 6.23697 34.7344 6.1256C34.6227 6.01422 34.3993 5.79148 34.2318 5.56872C33.6734 4.67773 33.1149 4.45498 32.7799 4.62204C32.3889 4.84479 32.1656 5.01185 31.8305 5.17892C31.5513 5.29029 31.2721 5.40166 31.1045 5.56872C30.6578 6.1256 31.1045 6.90522 31.3279 7.4064C31.4954 7.68484 31.8305 8.35307 31.663 8.85425C31.4954 9.4668 30.4903 9.85663 29.876 9.96798C29.8202 9.96798 29.8202 9.96798 29.7643 9.96798V9.74527C29.9318 9.41112 30.0993 9.07705 30.211 8.7429C30.602 7.68484 29.9877 7.23934 29.0942 7.01659C28.9824 6.9609 28.8708 6.90522 28.7032 6.9609V7.12797L28.5916 7.07228V6.84953H28.5357C28.6474 6.79384 28.7032 6.62678 28.7032 6.51541C28.7032 6.40403 28.6474 6.29266 28.5916 6.18128H28.7032L28.6474 6.1256C28.6474 6.06991 28.5916 6.01422 28.4799 5.95854C28.4799 5.95854 28.4241 5.90285 28.4241 5.84716C28.4241 5.84716 28.4799 5.90285 28.5357 5.90285C28.5916 5.95854 28.6474 6.01422 28.7032 6.06991L28.7591 6.1256V5.01185L28.7032 5.06754C28.7032 5.06754 28.5916 5.12323 28.5357 5.17892C28.4799 5.2346 28.4799 5.2346 28.4241 5.2346C28.4241 5.2346 28.4241 5.17892 28.4799 5.12323C28.5357 5.06754 28.5916 5.01185 28.6474 4.95616L28.7032 4.90047H27.6981L27.8098 5.01185C27.8098 5.06754 27.9214 5.12323 27.9214 5.17892C27.9214 5.2346 27.9773 5.2346 27.9773 5.29029C27.9773 5.29029 27.9214 5.29029 27.8656 5.2346C27.7539 5.17892 27.7539 5.12323 27.6981 5.12323V5.01185V6.01422L27.7539 5.95854C27.8098 5.90285 27.8656 5.84716 27.9214 5.79148C27.9214 5.79148 27.9773 5.73579 28.0331 5.73579C28.0331 5.73579 27.9773 5.79148 27.9773 5.84716C27.9214 5.90285 27.8656 5.95854 27.8098 6.01422L27.7539 6.06991H27.9214C27.8098 6.1256 27.8098 6.23697 27.8098 6.40404C27.8098 6.51541 27.8656 6.62678 27.9214 6.73816V6.9609L27.8098 7.01659V6.84953C27.6422 6.79384 27.5305 6.84953 27.4188 6.90522C26.5253 7.12797 25.911 7.57346 26.302 8.63154C26.4137 8.96561 26.5812 9.35544 26.7487 9.63391V9.80095C25.8552 9.52256 24.1799 8.52018 23.7331 7.90759C23.6773 7.8519 23.6215 7.79622 23.6215 7.74053V7.07228C23.9565 6.51541 24.2357 5.90285 24.4591 5.29029C25.0176 3.73105 24.1799 3.0628 22.8396 2.78436C22.7279 2.67299 22.5045 2.6173 22.2812 2.72867L22.2254 2.95142H21.9461V2.6173C21.8902 2.6173 21.8344 2.6173 21.7786 2.6173C21.9461 2.50593 22.1136 2.28317 22.1136 2.06043C22.1136 1.89337 22.0019 1.67061 21.8902 1.55924H22.1136C22.0019 1.44787 21.7786 1.16943 21.7227 1.00237C21.8902 1.05806 22.1695 1.28081 22.2812 1.39218V0.167061C22.1695 0.278436 21.8902 0.501185 21.7227 0.556872C21.7786 0.389811 22.0019 0.111375 22.1695 0H20.8851C20.9968 0.111375 21.2201 0.389811 21.2201 0.501185C21.0526 0.501185 20.8292 0.222749 20.6616 0.111375V1.39218C20.7734 1.28081 21.0526 1.05806 21.2201 1.00237C21.2201 1.16943 20.9409 1.44787 20.8292 1.55924H21.0526C20.8851 1.67061 20.8292 1.89337 20.8292 2.06043C20.8292 2.28317 20.9409 2.56161 21.1643 2.6173C21.1084 2.6173 21.0526 2.6173 20.9968 2.6173V2.95142H20.7175V2.72867C20.4941 2.67299 20.3266 2.72867 20.1591 2.78436C18.8188 3.0628 17.9812 3.73105 18.5396 5.29029C18.763 5.90285 19.0422 6.5711 19.3773 7.07228V7.74053C19.3773 7.74053 19.3214 7.79622 19.2655 7.8519C18.8188 8.46442 17.1993 9.4668 16.25 9.74527V9.57824C16.4175 9.24408 16.5851 8.90993 16.6968 8.57586C17.0876 7.51778 16.4733 7.07228 15.5799 6.84953C15.4682 6.79384 15.3565 6.73816 15.189 6.79384V6.9609L15.0772 6.90522V6.68247C15.1331 6.62678 15.189 6.45972 15.189 6.34834C15.189 6.23697 15.189 6.1256 15.0772 6.01422H15.2448L15.189 5.95854C15.1331 5.90285 15.0772 5.84716 15.0214 5.79148C15.0214 5.79148 14.9656 5.73579 14.9097 5.68009L15.0214 5.73579C15.0772 5.79148 15.1331 5.84716 15.189 5.90285L15.2448 5.95854V5.01185L15.189 5.06754C15.1331 5.06754 15.0772 5.12323 15.0214 5.17892C15.0214 5.2346 14.9097 5.2346 14.9097 5.2346C14.9097 5.2346 14.9656 5.17892 15.0214 5.12323C15.0772 5.06754 15.1331 5.01185 15.189 4.95616L15.2448 4.90047H14.2396L14.2954 5.01185C14.2954 5.06754 14.4071 5.12323 14.4071 5.17892C14.5188 5.2346 14.5188 5.29029 14.5188 5.29029C14.5188 5.29029 14.463 5.29029 14.4071 5.2346C14.3513 5.17892 14.2954 5.12323 14.2396 5.12323L14.1837 5.01185V6.01422L14.2396 5.95854C14.2396 5.90285 14.3513 5.84716 14.4071 5.79148C14.463 5.79148 14.463 5.73579 14.5188 5.73579C14.5188 5.73579 14.5188 5.79148 14.463 5.84716C14.4071 5.90285 14.3513 5.95854 14.3513 6.01422L14.2954 6.06991H14.4071C14.3513 6.1256 14.2954 6.23697 14.2954 6.40404C14.2954 6.51541 14.3513 6.62678 14.463 6.73816H14.4071V6.9609L14.2954 7.01659V6.84953C14.1279 6.79384 14.0162 6.84953 13.9046 6.90522C13.011 7.12797 12.3967 7.57346 12.7876 8.63154C12.8993 8.96561 13.0669 9.35544 13.2344 9.63391V9.85663C13.1786 9.85663 13.1786 9.85663 13.1227 9.85663C12.5085 9.74527 11.5032 9.35544 11.3357 8.7429C11.1682 8.24171 11.559 7.57346 11.6707 7.29503C11.8942 6.79384 12.285 5.95854 11.8942 5.45735C11.7266 5.17892 11.4474 5.12323 11.1682 4.95616C10.8331 4.7891 10.6656 4.62204 10.2188 4.3993C9.88378 4.23223 9.32531 4.45498 8.76683 5.34598C8.6552 5.56872 8.37597 5.79148 8.26427 5.90285C7.31492 6.01422 6.64479 6.34834 6.5331 6.90522C6.30972 8.01896 7.4266 8.01896 7.37076 8.68722C7.37076 9.07705 6.92401 8.79857 6.70063 8.79857C6.30972 8.68722 5.91882 8.90993 5.91882 9.41112C5.91882 9.63391 6.0305 10.0794 6.5331 10.3578C6.30972 10.0237 6.36557 9.57824 6.70063 9.63391C7.4266 9.85663 7.81752 9.85663 8.26427 9.29976C8.26427 9.63391 7.98505 9.91231 7.81752 10.1908C7.5383 10.9147 7.98505 11.6387 8.87854 11.6387C8.48768 11.2488 8.54349 10.8033 8.54349 10.8033C8.6552 10.1908 9.04607 9.96798 9.2136 9.4668C9.49283 8.29739 8.37597 8.13034 8.6552 7.01659C8.6552 6.84953 8.71102 6.5711 8.82273 6.40404C9.54865 6.29266 9.88378 6.01422 10.3864 5.79148C10.8889 6.73816 9.43702 8.01896 10.3864 9.02137C10.9448 9.57824 11.8942 9.91231 12.9552 9.96798H13.011C12.9552 10.0237 12.8993 10.1351 12.8993 10.2465C12.6201 10.1351 12.3967 10.3021 12.4526 10.5806C11.3915 10.5806 10.4422 11.1932 10.6656 12.4182C10.7214 12.8638 10.8889 13.0865 11.224 13.3093C11.6707 12.5853 12.9552 12.5853 13.7928 13.0308C13.3461 13.0308 12.676 13.1422 12.285 13.3093C11.8383 13.532 11.224 13.8104 10.6097 13.6991C10.1629 13.6434 9.9396 13.3649 9.88378 13.0865C9.66036 13.2536 9.82788 14.1446 10.5539 14.4787C10.9448 14.6457 11.559 14.7571 12.0617 14.423C12.2292 14.3116 12.8993 13.5877 13.737 13.5877C12.5643 13.9218 12.2292 14.7571 13.1227 15.2583C13.0669 14.9799 13.011 14.5343 13.6253 14.2003C13.9604 13.9775 14.463 13.8661 15.0214 14.0332C15.189 14.0888 15.4682 14.256 15.5799 14.256C15.8591 14.256 15.9708 14.1446 16.0266 14.0332C16.5851 14.423 17.3111 15.6481 17.5344 16.4277C17.7019 17.3188 17.5903 17.8756 17.1435 18.4325C16.976 18.5995 16.3058 19.1564 15.5799 18.5438C15.524 19.1007 15.8032 19.5462 16.25 19.6576C15.8591 19.7133 15.5799 19.7133 15.5799 19.7133H15.524L15.4682 19.7689C15.4682 19.7689 15.4123 19.9361 15.3007 20.2144C15.0214 20.1031 14.8539 19.9361 14.6864 19.6576C14.0721 20.3259 14.2954 21.4396 15.0772 21.7737C15.0772 21.9408 15.0772 22.1078 15.0772 22.2749C14.4071 22.8317 13.1227 22.7204 12.5085 21.7737C12.0058 21.0498 12.5643 20.5486 12.8435 20.2701C13.5694 19.6019 13.5694 18.9337 13.011 18.2097C12.3409 17.2631 10.3305 15.6481 9.54865 14.4787C9.43702 14.7015 9.32531 14.8685 9.32531 14.9799C8.59931 14.423 7.76167 13.3093 7.5383 12.4182C7.37076 12.4182 7.25908 12.5853 7.14738 12.6967C6.0305 11.3045 3.96426 7.8519 3.40582 6.51541C2.2331 7.23934 2.2331 8.96561 2.62401 9.96798C2.95907 10.859 3.51751 11.8614 4.69024 13.1979C4.29933 12.9194 2.00972 10.5806 1.50712 10.3021C0.669461 11.5272 1.2279 13.6434 2.84738 14.5343C2.34479 14.3116 1.17206 13.8661 0.501929 14.0332C0.390241 15.3697 1.45128 16.3164 2.17726 16.8176C1.50712 16.6505 0.78115 16.5391 0.0551758 16.7619C0.11102 17.7085 1.06037 18.7109 2.40063 19.2121C1.56297 19.1007 0.669461 19.2121 0.11102 19.5462C0.222708 20.4929 1.28375 21.3282 2.62401 21.551C1.7305 21.6623 0.94868 22.0522 0.557773 22.5533C1.06037 23.1659 1.7305 23.6671 2.79154 23.6114C2.56816 23.7228 2.2331 23.8898 2.00972 24.1126C2.00972 24.1126 1.95388 24.0569 1.89804 24.0569C1.84219 24.0569 1.84219 24.1683 1.84219 24.2239V24.2796C1.7305 24.2796 1.67465 24.391 1.67465 24.4467C1.56297 24.6138 1.45128 24.7808 1.39543 24.8922L1.45128 24.9479C1.45128 25.0593 1.45128 25.115 1.50712 25.2263C1.45128 25.282 1.45128 25.3377 1.39543 25.449L0.78115 25.2263C0.725306 25.7832 0.892841 26.2844 1.17206 26.5628C1.45128 26.7856 1.67465 26.7299 1.61882 26.8412L2.28894 27.2311C2.40063 27.5095 2.67985 27.5095 2.84738 27.3981V27.4538C2.84738 27.7323 3.01492 27.955 3.29414 28.0106C3.23829 28.2334 3.34999 28.4005 3.62921 28.4562L6.19804 34.6374C6.08635 34.9159 6.19804 35.1943 6.42141 35.3057C6.36557 35.3614 6.30972 35.4728 6.30972 35.5841C6.42141 35.5285 6.5331 35.4728 6.64479 35.6955C6.70063 35.8626 6.42141 36.3081 6.81232 36.6422C6.75648 36.9207 6.92401 37.199 7.20323 37.3662C7.20323 37.5332 7.31492 37.9787 7.37076 38.1457C7.20323 38.4242 6.75648 38.814 6.81232 39.2038C6.86816 39.5379 6.97986 39.5936 7.20323 39.705C7.09154 40.2618 7.4266 40.4846 7.87336 40.5403C7.87336 40.9302 8.26427 41.0972 8.48768 41.0972C8.71102 41.2642 8.82273 41.3199 9.10197 41.487C8.87854 41.7654 9.04607 42.1552 9.49283 42.2666C9.54865 42.4337 9.66036 42.6008 9.9396 42.6564C10.1071 42.8791 10.3864 42.8791 10.4981 42.8235C10.6097 42.7678 10.7772 42.4894 10.6097 42.2666C10.7214 42.1552 10.6656 41.9325 10.6097 41.7654C10.7772 41.487 10.6097 41.1529 10.4422 41.0415C10.4422 40.8744 10.3864 40.6517 10.3305 40.5403C10.6656 40.3175 11.1124 40.0391 11.2799 39.9278C12.1733 39.3152 13.1227 38.7583 14.2954 38.6469C14.5747 38.6469 15.1331 38.5913 15.4123 38.6469C15.8591 38.7026 16.4733 38.814 16.8643 38.5356C16.976 38.4799 17.0318 38.3129 17.0318 38.2014C16.976 37.923 16.6968 37.6446 16.5851 37.4218C16.5851 37.3662 16.5292 37.2547 16.4733 37.1434C16.8084 37.199 17.0876 37.1434 17.2552 37.0877C17.4786 37.032 17.9253 36.6422 17.9253 36.141C17.5344 36.3081 16.6409 36.5865 16.5292 35.6398C16.4175 34.8045 17.1435 34.1362 18.3162 34.4147C19.098 34.6374 20.215 36.2524 19.2097 36.9763C18.7072 37.3105 17.9253 37.6446 18.037 38.5356C18.3721 38.1457 18.8188 37.923 19.3773 37.9787C18.5396 38.5913 17.8694 38.7026 16.976 39.1481C16.1941 39.5936 15.6357 40.3733 15.0214 40.3733C14.5747 40.3733 14.2954 39.8163 14.7422 39.4266C14.2954 39.3152 13.6811 39.705 13.5136 40.1505C13.2903 40.8187 13.4578 41.2642 13.8487 41.5427C13.2903 41.8211 12.8993 42.4337 13.0669 43.2133C13.2344 43.8815 13.9604 43.8815 13.6811 44.7725C14.0721 44.6612 14.2954 44.4384 14.4071 44.0486C14.463 43.7702 14.5188 43.5474 14.6305 43.3803C14.5747 43.8815 14.8539 44.6612 15.5799 44.9953C16.0825 45.218 16.8084 45.3294 17.3669 44.7169C17.5903 45.3851 18.4279 45.9976 19.2097 45.9419C19.6007 45.9419 19.9357 45.7749 20.2708 45.6079C20.4941 46.1091 20.9968 46.6102 21.4994 46.833C22.0019 46.6102 22.5045 46.1091 22.7279 45.6079C23.0072 45.7749 23.398 45.9419 23.7331 45.9419C24.5149 45.9419 25.3526 45.3851 25.576 44.7169C26.1344 45.3294 26.9162 45.218 27.363 44.9953C28.0889 44.6612 28.3682 43.8815 28.3123 43.3803C28.4241 43.4918 28.4799 43.7702 28.5357 44.0486C28.6474 44.4384 28.8708 44.6612 29.2617 44.7725C28.9824 43.9372 29.7084 43.9372 29.876 43.2133C30.0993 42.378 29.6526 41.8211 29.15 41.5427C29.5409 41.2642 29.7084 40.8187 29.485 40.1505C29.3175 39.6493 28.7032 39.3152 28.2565 39.4266C28.7032 39.8721 28.4799 40.429 27.9773 40.3733C27.363 40.3733 26.8045 39.5936 26.0227 39.1481C25.1292 38.6469 24.4591 38.5913 23.6215 37.9787C24.1799 37.923 24.6824 38.1457 24.9617 38.5356C25.0734 37.6446 24.2916 37.3105 23.789 36.9763C22.7837 36.2524 23.9006 34.6374 24.6824 34.4147C25.7994 34.0806 26.5253 34.8045 26.4137 35.6398C26.302 36.5865 25.4084 36.3081 24.9617 36.141C24.9617 36.6422 25.4642 37.032 25.6318 37.0877C25.8552 37.199 26.302 37.2547 26.6928 37.0877C26.6928 37.199 26.637 37.2547 26.637 37.3105C26.5812 38.0901 26.1344 38.2014 26.302 38.5356C26.5253 38.7583 27.9214 38.7583 28.2565 38.814C28.9266 38.9254 29.485 39.1481 30.0993 39.2595C30.8253 39.4266 31.5513 39.4266 32.1656 39.6493C32.5565 39.8163 33.0032 40.1505 33.45 40.3733C34.0643 40.4846 33.9526 40.7074 34.3435 40.7074C34.6786 40.7074 34.8461 40.429 35.2929 40.2618C35.6279 40.2062 35.963 40.3175 36.2422 40.2062C36.4656 40.1505 36.5772 39.9278 36.8007 39.8163C37.024 39.6493 37.415 39.6493 37.6383 39.4823C37.75 39.3709 37.8058 39.1481 37.75 39.0368V39.0924C38.1968 38.7583 38.5876 38.2571 38.7552 37.7002C38.8669 37.7002 38.9786 37.5889 38.9786 37.4218V37.3662C39.0903 37.2547 39.2019 37.1434 39.2019 36.9763C39.2019 36.8093 39.1461 36.6422 38.9786 36.5308V36.4751C38.9786 36.3638 38.9228 36.3081 38.8669 36.2524C38.6435 35.1943 37.8617 34.3034 36.8007 34.0249V33.9692C36.8007 33.9135 36.8007 33.9135 36.7448 33.9135C36.5772 33.7465 36.4097 33.5237 36.4097 33.4123C36.5772 33.468 36.8565 33.7465 37.024 33.8579V32.4656C36.8565 32.577 36.5772 32.8555 36.4097 32.9112C36.4097 32.7441 36.689 32.41 36.8565 32.2986H35.4046C35.5163 32.41 35.7954 32.7441 35.8513 32.9112C35.6838 32.8555 35.4046 32.577 35.237 32.4656V33.8579C35.4046 33.7465 35.6838 33.468 35.8513 33.4123C35.8513 33.5794 35.5721 33.9135 35.4046 34.0249H35.4604C34.3993 34.2477 33.5059 35.1386 33.3383 36.2524C33.2825 36.3081 33.2266 36.3638 33.2266 36.4751V36.5308C33.1149 36.6422 33.0032 36.8093 33.0032 36.9763C33.0032 37.1434 33.0591 37.2547 33.2266 37.3662V37.4218C33.2266 37.5889 33.3383 37.6446 33.45 37.7002C33.5059 37.8117 33.5617 37.9787 33.6175 38.0901C33.5059 38.4799 33.0591 38.7583 32.9474 38.7583C32.0539 38.8697 31.1045 38.5356 30.211 38.2014C29.8202 38.0344 29.2617 37.8674 29.0383 37.4775C28.8708 37.199 28.8149 37.032 28.8708 36.7535C28.9824 36.865 29.15 37.032 29.3734 37.1434C29.3734 37.032 29.3734 36.865 29.4292 36.8093C29.6526 37.1434 29.9877 37.3105 30.4344 37.3105C30.1552 37.0877 30.0435 36.5308 30.1552 36.0296C30.4903 36.6422 31.8864 36.7535 32.1097 35.6955C31.6071 35.9183 31.2721 35.6955 31.1604 35.4171C30.9928 34.9716 31.4954 33.9135 31.0487 33.1339C30.7136 32.5213 30.2669 32.1873 29.3175 32.0201C29.3734 31.9088 29.4292 31.7974 29.4292 31.6304C28.5357 31.9645 27.8098 31.6861 27.4188 31.0178C27.5863 31.0734 27.8656 31.1292 28.0889 31.1292C27.3071 30.5166 27.363 28.7346 27.9214 27.7879C27.9773 27.7323 28.0331 27.6766 28.0889 27.6766C28.2565 28.0106 28.7591 28.0106 29.0383 28.2891C29.15 28.1778 29.2059 28.1778 29.2617 28.0664C29.2617 28.0664 29.2617 29.5142 29.3734 30.1268C29.485 30.7951 30.1552 30.7394 30.4344 31.0178C30.8253 30.5723 31.5513 30.628 31.4396 29.8484C31.3279 29.1245 31.2163 28.4005 31.1604 27.8993C31.3838 28.3448 31.8305 30.0711 31.9981 30.5723C32.2773 31.2962 33.0032 31.0734 33.3942 31.3519C33.6734 30.8507 34.2877 30.6837 34.0643 29.9597C34.0085 29.737 32.9474 27.5095 32.7799 27.064C33.1707 27.6209 34.176 29.6256 34.511 30.1825C34.8461 30.7394 35.5163 30.4609 35.963 30.628C36.0747 30.2382 36.689 29.737 36.2422 29.013C35.6838 28.0664 34.2877 26.3957 34.2318 26.1173C34.511 26.3957 36.6331 29.013 36.8007 29.1245C37.3032 29.5699 38.0292 29.2358 38.4201 29.2358C38.4201 28.7346 38.8111 28.2334 38.2526 27.6766C37.75 27.1754 36.5772 26.3957 36.3539 26.0617C37.1357 26.6185 38.0292 27.4538 38.5876 27.5652C39.5371 27.7879 39.8721 27.4538 40.263 27.2867C39.9837 26.3957 40.3747 26.006 38.3085 25.1706C40.0954 25.7832 40.8773 25.5048 41.4915 25.0036C41.2682 24.391 40.598 23.8341 40.0954 23.6671C41.1565 23.6671 41.8825 23.2216 42.3293 22.609C41.9383 22.1078 41.1565 21.718 40.263 21.6066C41.715 21.3282 42.776 20.4929 42.8876 19.5462ZM2.06557 25.9502C2.00972 26.006 2.00972 25.9502 2.06557 25.9502C1.84219 25.9502 1.84219 25.7832 1.89804 25.6718C1.95388 25.6718 2.00972 25.6718 2.06557 25.6161L2.00972 25.6718C2.00972 25.7832 2.00972 25.8945 2.06557 25.9502ZM2.56816 27.0083L2.34479 26.8412C2.40063 26.7299 2.51232 26.7299 2.56816 26.7856C2.56816 26.8969 2.56816 26.9526 2.56816 27.0083ZM3.29414 25.449H3.18245C3.18245 25.449 3.23829 25.449 3.29414 25.449ZM17.2552 43.436C16.6409 43.436 16.1941 43.0463 16.5292 42.5451C16.6968 42.7678 17.0318 42.8791 17.2552 42.9348C17.2552 43.1576 17.2552 43.269 17.2552 43.436ZM26.4695 42.5451C26.8045 43.1019 26.3578 43.436 25.7435 43.436C25.7435 43.2133 25.7435 43.1576 25.6877 42.8791C25.9669 42.8791 26.302 42.7678 26.4695 42.5451ZM17.2552 9.96798C18.6513 9.68959 20.0474 8.90993 20.6616 8.24171C21.1643 8.29739 21.8344 8.29739 22.3929 8.24171C23.0072 8.90993 24.4033 9.63391 25.7994 9.96798C25.0176 9.96798 23.5656 9.91231 23.398 9.68959C23.4539 10.1908 24.5149 10.7476 25.2409 10.9147C24.6824 10.9704 24.124 10.9147 23.6773 10.692C23.9006 11.026 24.2357 11.3045 24.6824 11.4715C24.1799 12.0842 23.1747 12.4739 22.1695 12.3626C22.3929 12.641 22.8955 12.8638 23.2863 12.8081C22.3929 14.256 21.7227 15.7038 21.5552 17.4301C21.3876 15.7038 20.7175 14.256 19.824 12.8081C20.215 12.8638 20.6616 12.6967 20.8851 12.3626C19.8798 12.4739 18.8747 12.0842 18.3721 11.4715C18.8188 11.3045 19.098 11.026 19.3773 10.692C18.9305 10.9147 18.3721 10.9704 17.8136 10.9147C18.5396 10.7476 19.6007 10.1908 19.6565 9.68959C19.4331 9.85663 18.037 9.96798 17.2552 9.96798ZM4.57855 25.115C4.46687 25.1706 4.29933 25.2263 4.18765 25.282V25.2263C4.29933 25.1706 4.46687 25.1706 4.57855 25.115ZM13.4578 31.5746C13.4578 31.7417 13.5136 31.8531 13.5694 31.9645C12.6201 32.1316 12.2292 32.4656 11.8942 33.0782C11.3915 33.9135 11.8942 34.9159 11.7825 35.3614C11.6707 35.6398 11.3915 35.9183 10.8889 35.6398C11.1124 36.6979 12.5085 36.5865 12.8435 35.974C12.9552 36.4751 12.8435 37.032 12.6201 37.2547C13.0668 37.2547 13.4019 37.0877 13.6253 36.7535C13.6811 36.865 13.6811 36.9763 13.6811 37.0877C13.9046 36.9763 14.0721 36.8093 14.1837 36.6979C14.2396 36.8093 14.2954 37.0877 14.1837 37.3105C14.0162 37.4218 13.7928 37.5332 13.4578 37.7002C12.9552 37.923 12.0058 38.3129 11.5032 38.3685C11.0565 38.4242 10.3305 38.2014 10.1071 37.5889C9.9396 37.032 9.43702 36.8093 9.04607 37.199C8.93444 37.1434 8.6552 37.0877 8.54349 37.2547C8.54349 37.2547 8.43178 36.9763 8.26427 36.865C8.37597 36.5865 8.26427 36.1967 8.04089 36.0853C8.04089 35.5285 7.64998 35.5285 7.5383 35.3057C7.48245 35.1943 7.48245 35.0273 7.64999 35.0273C7.59414 34.9159 7.4266 34.9159 7.4266 34.9159C7.48245 34.6931 7.4266 34.359 7.09154 34.2477L4.1318 28.2891C4.29933 28.0664 4.24349 27.7879 4.02011 27.7323V27.6766C4.02011 27.6209 4.02011 27.5652 4.02011 27.5652C4.07596 27.5652 4.18765 27.5095 4.29933 27.5095C4.85777 27.3981 5.80713 26.5072 6.5331 26.006C6.25388 26.2844 5.13699 27.1197 4.6344 27.6209C4.18765 28.0664 4.35518 28.5676 4.41102 28.9573L4.52271 29.1801C4.96946 29.1801 5.58375 29.4585 6.08635 29.0688C6.25388 28.9017 8.32015 26.2844 8.6552 26.0617C8.54349 26.2844 7.20323 27.955 6.58894 28.9573C6.14219 29.6813 6.81232 30.1825 6.86816 30.5723C7.37077 30.4052 7.98505 30.6837 8.32015 30.1268C8.65521 29.5699 9.66036 27.5652 10.0513 27.0083C9.88378 27.4538 8.82273 29.6813 8.76683 29.904C8.48768 30.6837 9.15778 30.7951 9.43702 31.2962C9.82788 31.0178 10.5539 31.2406 10.8331 30.5166C11.0006 30.0154 11.4474 28.2891 11.6707 27.8436C11.6707 28.3448 11.5032 29.013 11.3915 29.7927C11.2799 30.5166 12.0058 30.5166 12.3409 30.9621C12.676 30.6837 13.3461 30.7394 13.4578 30.0711C13.5694 29.4585 13.5694 28.0106 13.5694 28.0106C13.6811 28.1221 13.737 28.1221 13.8487 28.2334C14.0721 27.955 14.5747 27.955 14.798 27.6209C14.8539 27.6209 14.9097 27.6766 14.9656 27.7323C15.524 28.6789 15.5799 30.4609 14.798 31.0734C15.0214 31.0734 15.3007 31.0734 15.4682 30.9621C15.1331 31.6303 14.3513 31.8531 13.4578 31.5746ZM18.9305 39.9835C18.4837 40.596 18.0929 41.0415 17.8136 41.8211C17.2552 41.7654 17.3669 41.0972 17.5344 40.763C17.8694 40.0948 19.3214 39.2595 20.1033 38.4242C19.7682 38.9811 19.3214 39.4823 18.9305 39.9835ZM20.4941 41.1529C20.215 42.3223 19.9915 43.993 20.1033 44.7725C19.098 44.2157 19.6565 42.2109 20.0474 41.3199C20.6058 40.0948 20.9968 38.5913 21.1084 37.6446C21.4435 38.3129 20.7175 40.3733 20.4941 41.1529ZM22.8955 44.7725C23.0072 43.993 22.7837 42.3223 22.5045 41.1529C22.2812 40.3733 21.6111 38.3129 21.8902 37.5889C22.0019 38.5356 22.3929 40.0391 22.9513 41.2642C23.3422 42.1552 23.9565 44.2157 22.8955 44.7725ZM25.4642 40.8187C25.6318 41.1529 25.7435 41.8211 25.1851 41.8768C24.9058 41.0972 24.5149 40.6517 24.0681 40.0391C23.6773 39.4823 23.2305 38.9811 22.8955 38.4242C23.6215 39.3152 25.0734 40.1505 25.4642 40.8187ZM25.2967 32.0201C23.9565 34.6374 21.4994 36.6979 21.4994 36.6979C21.4435 36.7535 19.0422 34.6374 17.7019 32.0201C16.3617 29.4585 15.524 25.3934 15.4682 23.4444C15.4123 21.4953 15.8032 20.66 15.8032 20.66C15.8032 20.66 17.4786 20.5486 18.8188 20.1031C19.9357 19.7133 21.1643 18.7109 21.5552 18.4325C21.8902 18.7109 23.1188 19.7133 24.2916 20.1031C25.6318 20.5486 27.3071 20.66 27.3071 20.66C27.3071 20.66 27.6981 21.4953 27.6422 23.4444C27.5305 25.3377 26.637 29.4028 25.2967 32.0201Z" fill="white"/>
</g>
</svg>
