<svg width="55" height="41" viewBox="0 0 55 41" fill="none" xmlns="http://www.w3.org/2000/svg">
<mask id="mask0_252_9170" style="mask-type:luminance" maskUnits="userSpaceOnUse" x="0" y="0" width="55" height="41">
<path d="M54.6667 0H0V41H54.6667V0Z" fill="white"/>
</mask>
<g mask="url(#mask0_252_9170)">
<path d="M5.69053 8.32861C5.24893 6.39636 7.17248 4.68687 9.65462 4.68687C11.8942 4.68687 14.1372 5.1892 14.9913 8.3246H17.8621V13.1047C14.2867 10.1515 6.52844 12.0068 5.69394 8.32861M35.4644 7.004H29.0019L22.8554 13.7649V0.259233H17.8664V3.53241C17.7049 3.32169 17.5307 3.11106 17.3402 2.90854C15.5183 0.976288 12.9021 0 9.56151 0C5.69821 0 3.49964 1.73785 2.33715 3.19212C0.891936 5.00282 0.247914 7.46985 0.693778 9.47906C1.84773 14.6845 6.66256 15.5149 10.197 15.9767C12.9875 16.3413 15.6559 16.8476 15.5867 19.347C15.5141 21.9396 12.6023 22.5756 10.695 22.5756C5.72298 22.5756 5.55301 18.8853 5.55301 18.8853H0.199219C0.276092 20.2706 0.693776 22.4945 2.39438 24.4066C4.25727 26.5009 7.04691 27.5582 10.6915 27.5582C13.4855 27.5582 16.0325 26.6427 17.8587 25.0223V27.2544H22.8469V20.8782L24.6124 18.9379L29.6502 27.2544H35.4567L28.123 15.0774L35.4567 7.00802L35.4644 7.004Z" fill="white"/>
<path d="M1.7211 39.272C1.86631 39.3206 2.04056 39.345 2.2353 39.345C2.48215 39.345 2.6769 39.272 2.82638 39.1221C2.97243 38.9723 3.07322 38.7778 3.1219 38.5551L0 31.9277H2.07301L4.07342 36.6876L5.83125 31.9277H7.8069L4.99676 38.4619C4.62862 39.3247 4.24767 39.9647 3.83085 40.3739C3.41317 40.7951 2.95962 41.0018 2.45396 41.0018C2.28399 41.0018 2.14646 41.0018 2.03713 40.9774C1.91499 40.9653 1.81848 40.941 1.72879 40.9167L1.4939 40.8437C1.43325 40.8195 1.37262 40.7951 1.3077 40.783V39.106C1.41703 39.1788 1.55455 39.2437 1.71257 39.2801" fill="white"/>
<path d="M11.3746 38.2898C11.2525 38.3262 11.1149 38.3506 10.9697 38.387C10.8237 38.4113 10.6614 38.4356 10.5034 38.4478C10.3462 38.472 10.184 38.472 10.0379 38.472C9.6578 38.472 9.33748 38.4356 9.04195 38.3748C8.75837 38.3019 8.51579 38.2007 8.31678 38.0548C8.12288 37.905 7.97255 37.7105 7.87603 37.4634C7.77866 37.2284 7.72998 36.9327 7.72998 36.5884V34.2227H9.42291V36.2562C9.42291 36.4426 9.44682 36.6005 9.4955 36.7139C9.53223 36.8355 9.60484 36.9368 9.70648 37.0097C9.803 37.0826 9.9166 37.1353 10.0627 37.1596C10.2079 37.1839 10.3821 37.196 10.5768 37.196C10.8724 37.196 11.091 37.1718 11.2653 37.1231C11.4395 37.0623 11.5728 37.0016 11.6701 36.9368V34.2227H13.3622V40.781H11.6701V38.1926C11.5967 38.2168 11.5002 38.2533 11.3746 38.2898Z" fill="white"/>
<path d="M18.0639 37.7219C17.9546 37.7705 17.8171 37.8191 17.6471 37.8434L17.1935 37.9285C16.9954 37.965 16.8254 38.0015 16.6793 38.0501C16.5333 38.0987 16.4077 38.1594 16.3112 38.2363C16.2138 38.3214 16.1412 38.4227 16.0883 38.5321C16.0353 38.6415 16.0157 38.7792 16.0157 38.9534C16.0157 39.0871 16.0396 39.2126 16.0763 39.3098C16.125 39.4193 16.1856 39.4962 16.2745 39.5691C16.3471 39.6299 16.4325 39.6947 16.5333 39.719C16.6426 39.7554 16.7562 39.7676 16.8775 39.7676C16.9381 39.7676 17.0236 39.7554 17.1252 39.7433C17.2217 39.7312 17.3191 39.7068 17.4447 39.6704C17.554 39.6218 17.6676 39.5732 17.7769 39.4962C17.8863 39.4354 17.987 39.3342 18.0724 39.2248C18.1698 39.1154 18.2424 38.9777 18.2911 38.8035C18.3398 38.6415 18.3757 38.4592 18.3757 38.2363V37.572C18.2792 37.6328 18.1656 37.6814 18.0682 37.7219M20.1053 39.9661C20.1173 40.0876 20.154 40.201 20.1899 40.2618C20.2266 40.3468 20.2633 40.3955 20.312 40.436C20.3599 40.4725 20.3966 40.4968 20.4572 40.5089V40.7803H18.5781L18.4816 40.4725C18.4329 40.351 18.421 40.201 18.421 40.0147L18.04 40.3955C17.9067 40.5049 17.7684 40.6062 17.6104 40.6912C17.4532 40.7762 17.2789 40.8533 17.0722 40.9019C16.8613 40.9505 16.6187 40.9747 16.3351 40.9747C16.0515 40.9747 15.768 40.9384 15.5254 40.8533C15.2785 40.7682 15.0718 40.6304 14.8856 40.4725C14.7157 40.2983 14.5653 40.0916 14.4688 39.8324C14.3714 39.5853 14.3228 39.2896 14.3228 38.9574C14.3228 38.686 14.3595 38.4389 14.444 38.204C14.5295 37.969 14.655 37.7705 14.8002 37.6003C14.9582 37.4262 15.1444 37.2804 15.3674 37.171C15.5903 37.0494 15.8329 36.9725 16.1165 36.936L17.7727 36.6889C17.8333 36.6768 17.8939 36.6768 17.9674 36.6525C18.04 36.6403 18.1006 36.616 18.1613 36.5674C18.2219 36.531 18.2706 36.4824 18.3074 36.4215C18.3441 36.3487 18.368 36.2595 18.368 36.1502C18.368 36.0408 18.3441 35.9395 18.3193 35.8545C18.2826 35.7572 18.2219 35.6802 18.1493 35.6195C18.0639 35.5466 17.9674 35.498 17.829 35.4575C17.6958 35.421 17.5215 35.4089 17.3276 35.4089C17.0928 35.4089 16.9228 35.4331 16.7887 35.4696C16.6426 35.5182 16.5299 35.5911 16.4564 35.6681C16.3718 35.7532 16.3112 35.8545 16.2745 35.9517L16.2019 36.3081H14.5047C14.5047 36.2352 14.5175 36.1218 14.5414 35.9759C14.5653 35.8382 14.614 35.6802 14.6875 35.5061C14.7481 35.344 14.8608 35.1739 14.983 34.9997C15.1043 34.8255 15.2666 34.6675 15.4852 34.5176C15.6791 34.384 15.9388 34.2584 16.2343 34.1733C16.5299 34.0883 16.8741 34.0397 17.2909 34.0234C17.87 34.0234 18.3475 34.0842 18.7165 34.1976C19.0726 34.3191 19.3562 34.4812 19.5621 34.6675C19.7568 34.8661 19.8944 35.0726 19.9678 35.3076C20.0285 35.5425 20.0643 35.7775 20.0643 36.0124V39.4881C20.0643 39.6866 20.0771 39.8445 20.101 39.9702" fill="white"/>
<path d="M25.0252 36.0813C24.9765 35.9436 24.9039 35.8342 24.8142 35.7492C24.7168 35.6519 24.6041 35.5911 24.4828 35.5384C24.3487 35.502 24.1864 35.4777 24.0045 35.4777C23.7209 35.4777 23.5023 35.5384 23.328 35.6762C23.158 35.8099 23.0205 35.9719 22.9359 36.1704C22.8386 36.3811 22.7899 36.6039 22.7489 36.8348C22.725 37.0697 22.7011 37.2925 22.7011 37.4991C22.7011 37.7057 22.713 37.9447 22.7369 38.1756C22.7617 38.4227 22.8104 38.6334 22.9069 38.8278C22.9923 39.0263 23.1179 39.1964 23.2998 39.322C23.4698 39.4557 23.7047 39.5205 24.0002 39.5205C24.195 39.5205 24.3692 39.4841 24.5144 39.399C24.6485 39.3261 24.7741 39.2248 24.8715 39.1154C24.968 38.9939 25.0448 38.8683 25.0935 38.7347C25.1302 38.6131 25.1542 38.4875 25.1542 38.3781H26.924C26.924 38.4875 26.912 38.6252 26.8753 38.7954C26.8266 38.9818 26.7659 39.1519 26.6814 39.3503C26.596 39.5367 26.4704 39.7312 26.3372 39.9296C26.1792 40.1281 26.0049 40.2982 25.7862 40.4482C25.5633 40.6102 25.3207 40.7317 25.0252 40.8289C24.7297 40.9261 24.3854 40.9747 24.0045 40.9747C23.5142 40.9747 23.0735 40.9019 22.6925 40.752C22.3116 40.5899 21.9921 40.3712 21.7367 40.0755C21.4779 39.7798 21.2832 39.4233 21.1457 38.9777C21.0124 38.5443 20.9355 38.0541 20.9355 37.4991C20.9355 36.9441 21.0081 36.4378 21.1576 36.0084C21.3037 35.5911 21.5147 35.2185 21.7854 34.9228C22.057 34.6271 22.3765 34.4042 22.7574 34.2584C23.1256 34.0964 23.5552 34.0234 24.0088 34.0234C24.2026 34.0234 24.4136 34.0478 24.6365 34.072C24.8467 34.0964 25.0534 34.1571 25.2635 34.2341C25.4745 34.3191 25.6692 34.4204 25.8674 34.542C26.0536 34.6635 26.2235 34.8255 26.3816 35.0119C26.5276 35.1982 26.6532 35.417 26.7497 35.6641C26.8471 35.9112 26.9077 36.2069 26.9359 36.5391H25.167C25.1302 36.3648 25.0935 36.2069 25.0329 36.0813" fill="white"/>
<path d="M33.0282 34.2227V35.6H31.0517V40.781H29.3554V35.6H27.3789V34.2227H33.0282Z" fill="white"/>
<path d="M37.9238 36.5884V34.2227H39.6168V40.781H37.9238V37.9697H35.4297V40.781H33.7368V34.2227H35.4297V36.5884H37.9238Z" fill="white"/>
<path d="M42.6576 38.2655L45.0381 34.2227H46.8199V40.781H45.1235V36.8234H45.0996L42.7909 40.781H40.9365V34.2227H42.6329V38.2655H42.6576Z" fill="white"/>
<path d="M52.2985 34.2227H54.5577L51.8569 36.9449L54.6671 40.781H52.4565L50.5407 38.0062L49.8522 38.707V40.781H48.1602V34.2227H49.8522V36.7099L52.2985 34.2227Z" fill="white"/>
</g>
</svg>
