<svg width="126" height="13" viewBox="0 0 126 13" fill="none" xmlns="http://www.w3.org/2000/svg">
<g style="mix-blend-mode:hard-light">
<mask id="mask0_252_9189" style="mask-type:luminance" maskUnits="userSpaceOnUse" x="0" y="1" width="30" height="11">
<path d="M29.1683 1.85742H0V11.2627H29.1683V1.85742Z" fill="white"/>
</mask>
<g mask="url(#mask0_252_9189)">
<path d="M12.6397 11.1241H10.2769L11.7547 2.01953H14.1174L12.6397 11.1241Z" fill="white"/>
<path d="M21.2075 2.24308C20.7414 2.05887 20.0022 1.85547 19.0882 1.85547C16.7548 1.85547 15.1117 3.09517 15.1016 4.86758C15.0822 6.17525 16.278 6.90156 17.1724 7.3376C18.0866 7.78315 18.3973 8.07397 18.3973 8.47108C18.388 9.08104 17.6586 9.36218 16.9783 9.36218C16.035 9.36218 15.5295 9.21723 14.7614 8.87786L14.4502 8.73243L14.1196 10.7762C14.6738 11.0277 15.6948 11.251 16.7548 11.2607C19.2341 11.2607 20.8482 10.0402 20.8672 8.15144C20.8767 7.11501 20.2453 6.32085 18.8839 5.6719C18.0575 5.25532 17.5514 4.97443 17.5514 4.54819C17.5611 4.1607 17.9795 3.76382 18.9124 3.76382C19.6805 3.74438 20.2448 3.92834 20.6724 4.11242L20.8861 4.2091L21.2075 2.24308Z" fill="white"/>
<path d="M24.3442 7.89868C24.5388 7.3756 25.2875 5.35129 25.2875 5.35129C25.2777 5.37073 25.4817 4.81859 25.5984 4.47963L25.7635 5.26414C25.7635 5.26414 26.211 7.44345 26.3081 7.89868C25.9389 7.89868 24.8109 7.89868 24.3442 7.89868ZM27.2608 2.01953H25.4331C24.8696 2.01953 24.4414 2.18406 24.1982 2.77494L20.6885 11.1239H23.1677C23.1677 11.1239 23.5759 10.0003 23.6636 9.7582C23.9356 9.7582 26.3474 9.7582 26.6973 9.7582C26.7651 10.0779 26.9792 11.1239 26.9792 11.1239H29.167L27.2608 2.01953Z" fill="white"/>
<path d="M8.30483 2.01953L5.99084 8.228L5.73797 6.96881C5.31016 5.51592 3.96846 3.93741 2.47119 3.15252L4.59072 11.1144H7.08934L10.8033 2.01953H8.30483Z" fill="white"/>
<path d="M3.84046 2.01953H0.0388915L0 2.20349C2.96546 2.95903 4.92943 4.78022 5.73633 6.96919L4.90992 2.78485C4.77386 2.20336 4.35574 2.03871 3.84046 2.01953Z" fill="#B9B9B9"/>
</g>
<mask id="mask1_252_9189" style="mask-type:luminance" maskUnits="userSpaceOnUse" x="35" y="0" width="18" height="13">
<path d="M52.6054 0H35.9204V13H52.6054V0Z" fill="white"/>
</mask>
<g mask="url(#mask1_252_9189)">
<path d="M38.9439 12.9715V12.1087C38.9439 11.7787 38.7436 11.5626 38.3996 11.5626C38.2276 11.5626 38.0405 11.6195 37.912 11.8072C37.8118 11.6497 37.6682 11.5626 37.4528 11.5626C37.3091 11.5626 37.1656 11.6061 37.052 11.7636V11.591H36.7515V12.9715H37.052V12.2092C37.052 11.9646 37.1806 11.849 37.3809 11.849C37.5814 11.849 37.6815 11.978 37.6815 12.2092V12.9715H37.9821V12.2092C37.9821 11.9646 38.1257 11.849 38.3111 11.849C38.5115 11.849 38.6116 11.978 38.6116 12.2092V12.9715H38.9439ZM43.4024 11.591H42.9148V11.1739H42.6143V11.591H42.3421V11.8641H42.6143V12.4974C42.6143 12.814 42.7428 13 43.0868 13C43.2154 13 43.359 12.9564 43.4592 12.8994L43.3724 12.6398C43.2855 12.6967 43.1853 12.7118 43.1135 12.7118C42.9699 12.7118 42.9132 12.6247 42.9132 12.4823V11.8641H43.4007V11.591H43.4024ZM45.9539 11.5609C45.7819 11.5609 45.6667 11.648 45.5949 11.7619V11.5894H45.2943V12.9698H45.5949V12.1925C45.5949 11.963 45.6951 11.8323 45.8821 11.8323C45.9389 11.8323 46.0107 11.8474 46.0691 11.8608L46.156 11.5727C46.0958 11.5609 46.0107 11.5609 45.9539 11.5609ZM42.0982 11.705C41.9547 11.6044 41.7543 11.5609 41.5389 11.5609C41.1949 11.5609 40.9661 11.7334 40.9661 12.0065C40.9661 12.236 41.1381 12.3667 41.4387 12.4086L41.5823 12.4236C41.7393 12.4521 41.8261 12.4957 41.8261 12.5677C41.8261 12.6682 41.7109 12.7403 41.5105 12.7403C41.3101 12.7403 41.1515 12.6682 41.0513 12.5962L40.9077 12.8257C41.0646 12.9413 41.28 12.9983 41.4955 12.9983C41.8962 12.9983 42.1266 12.8106 42.1266 12.5526C42.1266 12.308 41.9396 12.1791 41.6541 12.1355L41.5105 12.1204C41.3819 12.1054 41.2817 12.0769 41.2817 11.9914C41.2817 11.8909 41.3819 11.834 41.5406 11.834C41.7126 11.834 41.8845 11.906 41.9714 11.9495L42.0982 11.705ZM50.0952 11.5609C49.9231 11.5609 49.8079 11.648 49.7361 11.7619V11.5894H49.4356V12.9698H49.7361V12.1925C49.7361 11.963 49.8363 11.8323 50.0233 11.8323C50.0801 11.8323 50.1519 11.8474 50.2104 11.8608L50.2972 11.576C50.2388 11.5609 50.1536 11.5609 50.0952 11.5609ZM46.2545 12.2813C46.2545 12.6984 46.5417 13 46.9859 13C47.1863 13 47.3299 12.9564 47.4735 12.8425L47.3299 12.5979C47.2147 12.685 47.1011 12.7269 46.9709 12.7269C46.7271 12.7269 46.5551 12.5543 46.5551 12.2813C46.5551 12.0216 46.7271 11.849 46.9709 11.8356C47.0995 11.8356 47.2147 11.8792 47.3299 11.9646L47.4735 11.72C47.3299 11.6044 47.1863 11.5626 46.9859 11.5626C46.5417 11.5609 46.2545 11.8641 46.2545 12.2813ZM49.0348 12.2813V11.591H48.7342V11.7636C48.634 11.6346 48.4904 11.5626 48.3034 11.5626C47.916 11.5626 47.6154 11.8641 47.6154 12.2813C47.6154 12.6984 47.916 13 48.3034 13C48.5038 13 48.6474 12.9279 48.7342 12.7989V12.9715H49.0348V12.2813ZM47.931 12.2813C47.931 12.0367 48.088 11.8356 48.3468 11.8356C48.5906 11.8356 48.7626 12.0233 48.7626 12.2813C48.7626 12.5259 48.5906 12.7269 48.3468 12.7269C48.0897 12.7118 47.931 12.5242 47.931 12.2813ZM44.3342 11.5609C43.9334 11.5609 43.6462 11.849 43.6462 12.2796C43.6462 12.7118 43.9334 12.9983 44.3492 12.9983C44.5496 12.9983 44.75 12.9413 44.9086 12.8106L44.765 12.5945C44.6498 12.6816 44.5062 12.7386 44.3642 12.7386C44.1772 12.7386 43.9919 12.6515 43.9485 12.4086H44.9654C44.9654 12.365 44.9654 12.3365 44.9654 12.293C44.9787 11.849 44.7199 11.5609 44.3342 11.5609ZM44.3342 11.8206C44.5212 11.8206 44.6498 11.9362 44.6782 12.1506H43.9618C43.9902 11.9646 44.1188 11.8206 44.3342 11.8206ZM51.8017 12.2813V11.0449H51.5011V11.7636C51.4009 11.6346 51.2573 11.5626 51.0703 11.5626C50.6829 11.5626 50.3824 11.8641 50.3824 12.2813C50.3824 12.6984 50.6829 13 51.0703 13C51.2707 13 51.4143 12.9279 51.5011 12.7989V12.9715H51.8017V12.2813ZM50.6979 12.2813C50.6979 12.0367 50.8549 11.8356 51.1137 11.8356C51.3575 11.8356 51.5295 12.0233 51.5295 12.2813C51.5295 12.5259 51.3575 12.7269 51.1137 12.7269C50.8549 12.7118 50.6979 12.5242 50.6979 12.2813ZM40.6355 12.2813V11.591H40.3349V11.7636C40.2347 11.6346 40.0911 11.5626 39.9041 11.5626C39.5167 11.5626 39.2161 11.8641 39.2161 12.2813C39.2161 12.6984 39.5167 13 39.9041 13C40.1045 13 40.2481 12.9279 40.3349 12.7989V12.9715H40.6355V12.2813ZM39.5184 12.2813C39.5184 12.0367 39.6753 11.8356 39.9342 11.8356C40.178 11.8356 40.3499 12.0233 40.3499 12.2813C40.3499 12.5259 40.178 12.7269 39.9342 12.7269C39.6753 12.7118 39.5184 12.5242 39.5184 12.2813Z" fill="white"/>
<path d="M46.5133 1.10547H41.998V9.24389H46.5133V1.10547Z" fill="#858585"/>
<path d="M42.2992 5.17655C42.2992 3.52307 43.074 2.05554 44.2629 1.10734C43.3879 0.417139 42.2842 0 41.0802 0C38.2281 0 35.9204 2.31521 35.9204 5.17655C35.9204 8.03789 38.2281 10.3531 41.0802 10.3531C42.2842 10.3531 43.3879 9.93596 44.2629 9.24576C43.0723 8.31097 42.2992 6.83001 42.2992 5.17655Z" fill="white"/>
<path d="M52.604 5.16929C52.604 8.02664 50.3103 10.3386 47.4757 10.3386C46.2791 10.3386 45.1821 9.92201 44.3125 9.23279C45.5091 8.28426 46.2642 6.82045 46.2642 5.16929C46.2642 3.51813 45.4942 2.05266 44.3125 1.10579C45.1805 0.416554 46.2775 0 47.474 0C50.3103 0 52.604 2.32702 52.604 5.16929Z" fill="#BDBDBD"/>
</g>
<path fill-rule="evenodd" clip-rule="evenodd" d="M59.3574 1.48438H91.3895V11.6708H59.3574V1.48438Z" fill="white"/>
<path fill-rule="evenodd" clip-rule="evenodd" d="M63.5903 6.6392L65.0377 5.2236L63.5903 3.81641C63.9504 3.81641 64.3099 3.81641 64.6695 3.81641L66.1082 5.23198L64.6695 6.6392C64.3099 6.6392 63.9504 6.6392 63.5903 6.6392ZM61.6899 6.6392L63.1367 5.2236L61.6899 3.81641C62.0495 3.81641 62.409 3.81641 62.7685 3.81641L64.2159 5.23198L62.7685 6.6392C62.409 6.6392 62.0495 6.6392 61.6899 6.6392Z" fill="#797979"/>
<path fill-rule="evenodd" clip-rule="evenodd" d="M75.1308 9.5555C75.4081 9.5555 75.633 9.41417 75.633 9.1227C75.633 8.86654 75.4081 8.7782 75.2173 8.71635C75.2086 8.71635 75.2 8.70754 75.1913 8.70754C75.0443 8.65455 74.9145 8.61919 74.9145 8.52204C74.9145 8.43375 74.9837 8.38071 75.1048 8.38071C75.2173 8.38071 75.3562 8.43375 75.486 8.51323L75.6071 8.29242C75.46 8.19527 75.2778 8.13342 75.1135 8.13342C74.8453 8.13342 74.6377 8.29242 74.6377 8.54853C74.6377 8.81356 74.8626 8.90185 75.0616 8.9637C75.0702 8.9637 75.0789 8.97251 75.0875 8.97251C75.2346 9.01668 75.3649 9.05204 75.3649 9.15801C75.3649 9.25516 75.2865 9.30815 75.1567 9.30815C75.0183 9.30815 74.8626 9.25516 74.7156 9.14033L74.5771 9.35232C74.7242 9.48483 74.9405 9.5555 75.1308 9.5555ZM76.5592 9.5555C76.8106 9.5555 76.9836 9.45834 77.1133 9.29933L76.9317 9.13152C76.8279 9.23748 76.7149 9.29933 76.5678 9.29933C76.3689 9.29933 76.2132 9.17569 76.1786 8.94602H77.1653C77.1653 8.92834 77.1739 8.87535 77.1739 8.85767C77.1739 8.46024 76.9576 8.11574 76.5246 8.11574C76.144 8.11574 75.8666 8.44256 75.8666 8.83118C75.8666 9.26403 76.1699 9.5555 76.5592 9.5555ZM76.1786 8.74289C76.2045 8.5309 76.3429 8.38071 76.5246 8.38071C76.7322 8.38071 76.8452 8.53972 76.8625 8.74289H76.1786ZM78.1087 9.5555C78.3687 9.5555 78.5245 9.44947 78.6629 9.29933L78.4726 9.11384C78.3774 9.21099 78.2649 9.28165 78.126 9.28165C77.8924 9.28165 77.7194 9.08734 77.7194 8.84005C77.7194 8.5927 77.8838 8.39839 78.1087 8.39839C78.2649 8.39839 78.3601 8.46905 78.4552 8.56621L78.6456 8.35422C78.5245 8.21289 78.3601 8.11574 78.1087 8.11574C77.7021 8.11574 77.4075 8.44256 77.4075 8.83118C77.4075 9.23748 77.7021 9.5555 78.1087 9.5555ZM79.4073 9.5555C79.6149 9.5555 79.7452 9.44066 79.8318 9.31701V9.529H80.1432V8.1511H79.8318V8.92834C79.8318 9.14033 79.7106 9.27284 79.5284 9.27284C79.3468 9.27284 79.243 9.14919 79.243 8.9372V8.15991H78.9224V9.03436C78.9224 9.34351 79.1046 9.5555 79.4073 9.5555ZM80.5243 9.529H80.8357V9.00787C80.8357 8.64569 81.0261 8.46024 81.2948 8.46024H81.3121V8.1246C81.078 8.11574 80.9223 8.25706 80.8357 8.46024V8.1511H80.5243V9.529ZM82.1517 9.5555C82.4026 9.5555 82.5761 9.45834 82.7059 9.29933L82.5237 9.13152C82.4199 9.23748 82.3074 9.29933 82.1603 9.29933C81.9614 9.29933 81.8051 9.17569 81.7705 8.94602H82.7578C82.7578 8.92834 82.7664 8.87535 82.7664 8.85767C82.7664 8.46024 82.5496 8.11574 82.1171 8.11574C81.7359 8.11574 81.4591 8.44256 81.4591 8.83118C81.4591 9.26403 81.7532 9.5555 82.1517 9.5555ZM81.7619 8.74289C81.7878 8.5309 81.9268 8.38071 82.1084 8.38071C82.3161 8.38071 82.4285 8.53972 82.4545 8.74289H81.7619ZM83.6234 9.5555C83.8396 9.5555 83.9867 9.44066 84.0824 9.29933V9.529H84.3938V7.62109H84.0824V8.36309C83.9867 8.23938 83.8483 8.1246 83.6234 8.1246C83.3033 8.1246 83 8.38071 83 8.84005C83 9.29933 83.3119 9.5555 83.6234 9.5555ZM83.7012 9.28165C83.4936 9.28165 83.3119 9.10502 83.3119 8.84005C83.3119 8.5574 83.4849 8.39839 83.7012 8.39839C83.9088 8.39839 84.091 8.57508 84.091 8.84005C84.091 9.10502 83.9088 9.28165 83.7012 9.28165ZM86.3072 9.5555C86.6272 9.5555 86.9305 9.29933 86.9305 8.84005C86.9305 8.38071 86.6186 8.1246 86.3072 8.1246C86.0904 8.1246 85.9519 8.23938 85.8481 8.38071V7.62996H85.5367V9.529H85.8481V9.31701C85.9519 9.44066 86.0904 9.5555 86.3072 9.5555ZM86.2379 9.28165C86.0298 9.28165 85.8481 9.10502 85.8481 8.84005C85.8481 8.57508 86.0298 8.39839 86.2379 8.39839C86.4456 8.39839 86.6272 8.57508 86.6272 8.84005C86.6272 9.11384 86.4542 9.28165 86.2379 9.28165ZM87.4669 9.95298C87.6837 9.95298 87.8048 9.84696 87.9086 9.56431L88.4454 8.1511H88.1248L87.7788 9.17569L87.3977 8.1511H87.0603L87.6226 9.529C87.5707 9.65265 87.5188 9.68796 87.4323 9.68796C87.3717 9.68796 87.3111 9.67033 87.2506 9.63497L87.1468 9.86464C87.2419 9.91763 87.3371 9.95298 87.4669 9.95298Z" fill="#797979"/>
<path fill-rule="evenodd" clip-rule="evenodd" d="M70.4669 6.21709C70.5874 6.21709 70.6999 6.18189 70.8032 6.12042C71.001 5.99742 71.1048 5.78651 71.1048 5.55809C71.1048 5.32083 70.9924 5.10117 70.7859 4.97816C70.6912 4.92544 70.5788 4.89029 70.4755 4.89029C70.3636 4.89029 70.2517 4.91665 70.1565 4.97816C69.95 5.10117 69.8381 5.32083 69.8381 5.55809C69.8381 5.78651 69.9414 5.99742 70.1392 6.12042C70.2344 6.18189 70.3463 6.21709 70.4669 6.21709ZM67.6057 5.30326V4.24009H68.1659C68.3124 4.24009 68.4329 4.2928 68.5367 4.39824C68.64 4.50368 68.6919 4.6267 68.6919 4.76728C68.6919 4.91665 68.64 5.03966 68.5367 5.1451C68.4329 5.25054 68.3124 5.30326 68.1659 5.30326H68.0626H67.6057ZM67.6057 5.83047H68.0712H68.1745C68.3124 5.83047 68.4502 5.80409 68.5794 5.74261C68.7006 5.68985 68.8125 5.6108 68.9157 5.51413C69.0103 5.41747 69.0882 5.30326 69.1396 5.17146C69.2001 5.03966 69.2261 4.89908 69.2261 4.75849C69.2261 4.6179 69.2001 4.47732 69.1396 4.34552C69.0882 4.22251 69.0103 4.10828 68.9157 4.01163C68.8211 3.91498 68.7087 3.8359 68.5794 3.78318C68.4502 3.72167 68.3124 3.69531 68.1745 3.69531H67.0889V6.64761H67.6144V5.83047H67.6057ZM71.1389 6.40156C70.9583 6.5949 70.6999 6.70033 70.4323 6.70033C69.8035 6.70033 69.3466 6.18189 69.3466 5.54928C69.3466 4.91665 69.8035 4.39824 70.4323 4.39824C70.6999 4.39824 70.9583 4.50368 71.1389 4.70577V4.4246H71.6304V6.67394H71.1389V6.40156ZM73.7157 6.36642C73.5605 6.55976 73.3107 6.64761 73.0696 6.64761C72.4229 6.64761 72.1045 6.19952 72.1045 5.56685V4.4246H72.5954V5.54052C72.5954 5.91833 72.7419 6.15556 73.1296 6.15556C73.5437 6.15556 73.7157 5.84804 73.7157 5.45261V4.4246H74.2071V6.35766C74.2071 7.03423 73.7935 7.4999 73.1215 7.4999C72.7679 7.4999 72.4403 7.38566 72.1732 7.15723L72.1472 7.13085L72.4316 6.81457L72.4576 6.83214C72.6733 6.96395 72.8798 7.03423 73.1296 7.03423C73.5005 7.03423 73.7157 6.83214 73.7157 6.45433V6.36642Z" fill="#797979"/>
<path fill-rule="evenodd" clip-rule="evenodd" d="M82.1386 5.11489L82.1559 5.08071C82.1559 5.08071 82.1558 5.07217 82.1645 5.07217L82.1818 5.04654L82.1905 5.038V5.02946L82.1991 5.02092C82.2078 5.01237 82.2078 5.00383 82.2164 4.99529L82.2251 4.98675L82.2337 4.9782C82.2424 4.96966 82.251 4.95258 82.2597 4.94404L82.2683 4.93549C82.4754 4.67067 82.7949 4.50836 83.1404 4.50836H83.1836C83.8059 4.5169 84.2552 5.02092 84.2552 5.62742C84.2552 6.24252 83.7973 6.74652 83.1663 6.74652C82.9247 6.74652 82.683 6.64401 82.5273 6.46462V7.4983H82.0347V5.55908C82.0434 5.4224 82.0694 5.28574 82.1213 5.16614L82.1299 5.1576V5.14906L82.1386 5.14051L82.1472 5.13197L82.1386 5.11489ZM74.6997 3.81641H75.2268V6.68672H74.6997V3.81641ZM75.9351 5.25157L77.1445 6.68672H76.4536L75.2874 5.25157L76.4536 3.81641H77.1445L75.9351 5.25157ZM77.5938 5.75556C77.6111 6.0973 77.8879 6.27669 78.2248 6.27669C78.4578 6.27669 78.6913 6.21689 78.8984 6.0973L78.9244 6.08022L79.2012 6.37066L79.1752 6.39628C78.8984 6.6013 78.5789 6.72943 78.2334 6.72943C77.5679 6.72943 77.0932 6.26815 77.0932 5.61034C77.0932 4.96966 77.5506 4.49128 78.2075 4.49128C78.6567 4.49128 79.0109 4.70484 79.1839 5.10634C79.2612 5.2772 79.2785 5.55054 79.2271 5.72993L79.2185 5.75556H77.5938ZM80.0305 5.74701C80.0478 6.08876 80.3241 6.26815 80.6609 6.26815C80.8945 6.26815 81.1275 6.20835 81.3351 6.08876L81.3611 6.07167L81.6374 6.36211L81.6114 6.38774C81.3351 6.59276 81.0151 6.72089 80.6696 6.72089C80.0046 6.72089 79.5294 6.25961 79.5294 5.60179C79.5294 4.96112 79.9873 4.48273 80.6436 4.48273C81.0929 4.48273 81.4471 4.6963 81.6201 5.0978C81.6979 5.26865 81.7152 5.542 81.6633 5.72139L81.6547 5.74701H80.0305ZM85.05 5.74701C85.0673 6.08876 85.3435 6.26815 85.6809 6.26815C85.9139 6.26815 86.1475 6.20835 86.3546 6.08876L86.3805 6.07167L86.6568 6.36211L86.6308 6.38774C86.3546 6.59276 86.035 6.72089 85.6896 6.72089C85.024 6.72089 84.5488 6.25961 84.5488 5.60179C84.5488 4.96112 85.0067 4.48273 85.6636 4.48273C86.1129 4.48273 86.467 4.6963 86.6395 5.0978C86.7173 5.26865 86.7346 5.542 86.6827 5.72139L86.6741 5.74701H85.05ZM82.51 5.61034C82.51 6.49879 83.7454 6.42191 83.7454 5.61034C83.754 4.79027 82.51 4.71338 82.51 5.61034ZM77.6198 5.36262H78.7606C78.7519 5.32845 78.7346 5.28574 78.7259 5.25157C78.6308 5.04654 78.4318 4.93549 78.2075 4.93549C77.9571 4.93549 77.7236 5.07217 77.6371 5.31137C77.6284 5.32845 77.6198 5.34553 77.6198 5.36262ZM80.0565 5.36262H81.1967C81.1881 5.32845 81.1708 5.28574 81.1621 5.25157C81.067 5.04654 80.8686 4.93549 80.6436 4.93549C80.3933 4.93549 80.1598 5.07217 80.0738 5.31137C80.0651 5.32845 80.0651 5.34553 80.0565 5.36262ZM85.0759 5.36262H86.2162C86.2075 5.32845 86.1902 5.28574 86.1816 5.25157C86.0869 5.04654 85.888 4.93549 85.6636 4.93549C85.4127 4.93549 85.1797 5.07217 85.0932 5.31137C85.0846 5.32845 85.0846 5.34553 85.0759 5.36262ZM87.564 4.80735C87.763 4.59378 88.0392 4.49128 88.3328 4.49128H88.4453V4.9782H88.2295C87.7543 4.9782 87.5554 5.29428 87.5554 5.72993V6.69526H87.0455V4.5169H87.5467V4.80735H87.564Z" fill="#373737"/>
<path fill-rule="evenodd" clip-rule="evenodd" d="M98.1411 2.66406H99.7366H100.561H100.583C101.353 2.66406 101.712 3.22833 101.907 3.86856L102.938 7.27589H103.144L104.175 3.86856C104.37 3.22833 104.717 2.67491 105.477 2.66406H105.498H106.345H107.907V10.3793H105.488V5.80007H105.314L103.893 10.3793H102.189L100.768 5.80007H100.561V10.3793H98.1411V2.66406ZM120.169 7.93781H122.785C123.924 7.93781 124.89 7.21074 125.259 6.20161H120.169H117.75V7.93781V10.3902H120.169V7.93781ZM108.906 2.66406H111.325V7.24329H111.64C112.129 6.11479 112.617 4.9971 113.105 3.86856C113.431 3.09811 113.756 2.76172 114.581 2.66406H115.427H116.664V10.3793H114.234V5.80007H113.995C113.507 6.92863 113.018 8.04632 112.53 9.17483C112.215 9.91271 111.868 10.3034 111.055 10.3793H110.219H108.906V2.66406Z" fill="white"/>
<path fill-rule="evenodd" clip-rule="evenodd" d="M125.433 5.85501V5.80072C125.433 4.67221 125.367 4.30326 124.847 3.61963C124.51 3.17472 123.751 2.75152 123.024 2.64301C122.926 2.63216 122.818 2.61046 122.698 2.59961H117.402C117.435 4.04283 118.803 5.29073 119.942 5.70308C120.148 5.77904 120.441 5.82246 120.799 5.85501H125.433Z" fill="#C5C5C5"/>
</g>
</svg>
